<svg xmlns="http://www.w3.org/2000/svg" viewBox="0 0 2171 339" fill="none" class="max-w-full text-[#025C71] dark:text-[#13b1b9] forced-colors:text-[CanvasText] mx-auto h-16"><path opacity="0.86" d="M291 203.25C291 267.039 239.289 318.75 175.5 318.75C175.5 318.75 158.041 303.091 158 282C157.966 263.914 164.125 249.625 183.375 233C197.484 220.815 247.786 180.427 273.648 159.724C280.257 154.433 289.935 158.775 290.268 167.234C290.653 177.013 291 189.61 291 203.25Z" fill="#13758B"></path><path opacity="0.86" d="M141.375 261C138.674 292.059 175.5 318.75 175.5 318.75C111.711 318.75 60 267.039 60 203.25C60 157.076 68.75 138.5 137.875 69.375L185.984 23.2702C192.181 17.332 202.3 20.9213 203.052 29.4708C205.743 60.0691 208.695 118.769 197.375 162.125C185.855 206.248 144.875 220.75 141.375 261Z" fill="#10A9AF"></path><ellipse cx="259.5" cy="90.375" rx="31.5" ry="30.625" fill="#FAB21B"></ellipse><path fill-rule="evenodd" clip-rule="evenodd" d="M433.5 79.375H351V59.375H536V79.375H453.5V279.375H433.5V79.375Z" fill="#025C71"></path><path fill-rule="evenodd" clip-rule="evenodd" d="M601 129.375C573.386 129.375 551 151.761 551 179.375V279.375H531V179.375C531 140.715 562.34 109.375 601 109.375V129.375Z" fill="#025C71"></path><path fill-rule="evenodd" clip-rule="evenodd" d="M631 209.375V109.375H651V209.375C651 236.989 673.386 259.375 701 259.375C728.614 259.375 751 236.989 751 209.375V109.375H771V209.375C771 248.035 739.66 279.375 701 279.375C662.34 279.375 631 248.035 631 209.375Z" fill="#025C71"></path><path fill-rule="evenodd" clip-rule="evenodd" d="M811 154.375C811 129.522 831.147 109.375 856 109.375H951V129.375H856C842.193 129.375 831 140.568 831 154.375C831 168.182 842.193 179.375 856 179.375H901C928.614 179.375 951 201.761 951 229.375C951 256.989 928.614 279.375 901 279.375H811V259.375H901C917.569 259.375 931 245.944 931 229.375C931 212.806 917.569 199.375 901 199.375H856C831.147 199.375 811 179.228 811 154.375Z" fill="#025C71"></path><path fill-rule="evenodd" clip-rule="evenodd" d="M991 79.375H1011V109.375H1061V129.375H1011V209.375C1011 236.989 1033.39 259.375 1061 259.375V279.375C1022.34 279.375 991 248.035 991 209.375V79.375Z" fill="#025C71"></path><path d="M1177.01 64.7588C1199.1 57.5804 1222.9 57.5804 1244.99 64.7588C1267.08 71.9372 1286.34 85.9256 1299.99 104.719L1283.82 116.471C1267.45 93.989 1240.93 79.375 1211 79.375C1161.29 79.375 1121 119.669 1121 169.375C1121 219.081 1161.29 259.375 1211 259.375C1240.93 259.375 1267.45 244.76 1283.82 222.278L1299.99 234.031C1286.34 252.824 1267.08 266.813 1244.99 273.991C1222.9 281.17 1199.1 281.17 1177.01 273.991C1154.92 266.813 1135.66 252.824 1122.01 234.031C1108.35 215.238 1101 192.605 1101 169.375C1101 146.145 1108.35 123.512 1122.01 104.719C1135.66 85.9256 1154.92 71.9372 1177.01 64.7588Z" fill="#025C71"></path><path fill-rule="evenodd" clip-rule="evenodd" d="M1416 259.375C1451.9 259.375 1481 230.274 1481 194.375C1481 158.476 1451.9 129.375 1416 129.375C1380.1 129.375 1351 158.476 1351 194.375C1351 230.274 1380.1 259.375 1416 259.375ZM1416 279.375C1462.94 279.375 1501 241.319 1501 194.375C1501 147.431 1462.94 109.375 1416 109.375C1369.06 109.375 1331 147.431 1331 194.375C1331 241.319 1369.06 279.375 1416 279.375Z" fill="#025C71"></path><path fill-rule="evenodd" clip-rule="evenodd" d="M1551 79.375V279.375H1531V79.375H1551Z" fill="#025C71"></path><path fill-rule="evenodd" clip-rule="evenodd" d="M1611 79.375V279.375H1591V79.375H1611Z" fill="#025C71"></path><path fill-rule="evenodd" clip-rule="evenodd" d="M1681.59 121.9C1698.84 111.326 1719.31 107.256 1739.3 110.422C1759.29 113.588 1777.49 123.782 1790.63 139.172C1800.49 150.714 1807.02 164.61 1809.67 179.375H1809.68C1810.55 184.244 1811 189.257 1811 194.375C1811 196.053 1810.95 197.72 1810.85 199.375H1661.19C1663.74 232.937 1691.78 259.375 1726 259.375C1747.62 259.375 1766.77 248.82 1778.59 232.583L1794.77 244.337C1782.87 260.71 1765.52 272.302 1745.84 277.026C1726.16 281.751 1705.44 279.298 1687.41 270.11C1669.38 260.922 1655.21 245.601 1647.47 226.903C1639.72 208.205 1638.91 187.356 1645.16 168.108C1651.41 148.86 1664.33 132.475 1681.59 121.9ZM1726 129.375C1695.26 129.375 1669.51 150.708 1662.74 179.375H1789.26C1782.49 150.708 1756.74 129.375 1726 129.375Z" fill="#025C71"></path><path d="M1899.73 113.535C1916.81 107.988 1935.19 107.988 1952.27 113.535C1969.34 119.082 1984.22 129.891 1994.77 144.413L1978.59 156.166C1966.77 139.929 1947.62 129.375 1926 129.375C1890.1 129.375 1861 158.477 1861 194.375C1861 230.274 1890.1 259.375 1926 259.375C1947.62 259.375 1966.77 248.82 1978.59 232.583L1994.77 244.337C1984.22 258.859 1969.34 269.668 1952.27 275.215C1935.19 280.762 1916.81 280.762 1899.73 275.215C1882.66 269.668 1867.78 258.859 1857.23 244.337C1846.68 229.815 1841 212.325 1841 194.375C1841 176.425 1846.68 158.935 1857.23 144.413C1867.78 129.891 1882.66 119.082 1899.73 113.535Z" fill="#025C71"></path><path fill-rule="evenodd" clip-rule="evenodd" d="M2041 79.375H2061V109.375H2111V129.375H2061V209.375C2061 236.989 2083.39 259.375 2111 259.375V279.375C2072.34 279.375 2041 248.035 2041 209.375V79.375Z" fill="#025C71"></path></svg>