<svg xmlns="http://www.w3.org/2000/svg" viewBox="0 0 124 18" fill="none"><path fill="#484854" fill-rule="evenodd" d="M18.047 0H0v18h5.692V4.371H16.69c.857 0 1.552.691 1.552 1.543V18h5.692V5.85c0-3.231-2.635-5.85-5.886-5.85m26.266 0H28.656v4.114H42.95c.857 0 1.552.691 1.552 1.543v.772H32.08c-3.213 0-5.818 2.588-5.818 5.781v.008c0 3.194 2.605 5.782 5.818 5.782h18.116V5.846C50.196 2.617 47.562 0 44.313 0m-10.68 13.629a1.67 1.67 0 0 1-1.679-1.668v-.008c0-.92.752-1.667 1.678-1.667h11.13v3.343zM79.172 0h15.659c3.248 0 5.882 2.617 5.882 5.846V18H82.598c-3.213 0-5.817-2.588-5.817-5.781v-.009c0-3.193 2.604-5.781 5.817-5.781h12.424v-.772c0-.852-.696-1.543-1.553-1.543H79.174zm3.3 11.961c0 .921.75 1.668 1.677 1.668h11.13v-3.343H84.15c-.926 0-1.677.746-1.677 1.667zM68.76 4.114v7.972c0 .852-.696 1.543-1.553 1.543H52.783V18h15.782c3.252 0 5.887-2.619 5.887-5.85V0H68.76zm40.233 1.8V18h-5.692V5.85c0-3.231 2.635-5.85 5.886-5.85H124v4.371h-13.454c-.858 0-1.553.691-1.553 1.543" clip-rule="evenodd"></path></svg>